<svg xmlns="http://www.w3.org/2000/svg" width="72" height="72" viewBox="0 0 72 72" fill="none">
  <!-- Fondo rojo redondeado -->
  <rect width="72" height="72" rx="18" fill="#E50914"/>
  <!-- Ícono Flame de lucide, centrado y escalado -->
  <g transform="translate(20 20) scale(1.33)" stroke="#FFFFFF" stroke-width="2.5" stroke-linecap="round" stroke-linejoin="round" fill="none">
    <path d="M8.5 14.5A2.5 2.5 0 0 0 11 12c0-1.38-.5-2-1-3-1.072-2.143-.224-4.054 2-6 .5 2.5 2 4.9 4 6.5 2 1.6 3 3.5 3 5.5a7 7 0 1 1-14 0c0-1.153.433-2.294 1-3a2.5 2.5 0 0 0 2.5 2.5z"/>
  </g>
</svg>
