<?xml version="1.0" encoding="UTF-8" standalone="no"?>
<!-- Created with Inkscape (http://www.inkscape.org/) -->

<svg
   version="1.1"
   id="svg1"
   width="1024"
   height="1024"
   viewBox="0 0 1024 1024"
   sodipodi:docname="logoooo.svg"
   inkscape:version="1.4.4 (dcaf3e7, 2026-05-05)"
   xmlns:inkscape="http://www.inkscape.org/namespaces/inkscape"
   xmlns:sodipodi="http://sodipodi.sourceforge.net/DTD/sodipodi-0.dtd"
   xmlns="http://www.w3.org/2000/svg"
   xmlns:svg="http://www.w3.org/2000/svg">
  <defs
     id="defs1" />
  <sodipodi:namedview
     id="namedview1"
     pagecolor="#ffffff"
     bordercolor="#000000"
     borderopacity="0.25"
     inkscape:showpageshadow="2"
     inkscape:pageopacity="0.0"
     inkscape:pagecheckerboard="0"
     inkscape:deskcolor="#d1d1d1"
     inkscape:zoom="0.79589844"
     inkscape:cx="511.37178"
     inkscape:cy="512"
     inkscape:window-width="1920"
     inkscape:window-height="1017"
     inkscape:window-x="-8"
     inkscape:window-y="-8"
     inkscape:window-maximized="1"
     inkscape:current-layer="g1" />
  <g
     inkscape:groupmode="layer"
     inkscape:label="Image"
     id="g1">
    <path
       style="fill:#000000"
       d="M 274.48622,691.36996 186.13006,602.68471 V 478.57861 354.47252 l 90.3628,-90.69087 90.36281,-90.69086 h 120.14725 120.14723 l 90.85929,91.19746 90.85929,91.19746 v 123.5995 123.5995 l -88.35617,88.68525 -88.35616,88.68521 h -124.657 -124.657 z m 414.05713,-13.58257 83.39979,-83.13771 -0.0476,-116.06469 -0.0476,-116.06469 -85.85304,-86.17304 -85.85303,-86.17303 -112.64021,0.0452 -112.64023,0.0452 -85.87709,85.62322 -85.87709,85.62322 0.0219,116.73691 0.0219,116.73691 83.3509,82.98854 83.35092,82.98854 117.64542,-0.018 117.64541,-0.018 z m -342.91584,9.08884 C 325.91226,667.68436 293.89963,636.17246 274.48834,616.84979 L 239.19509,581.71767 V 480.70064 379.68361 L 288.08587,330.401 c 26.88994,-27.10543 60.79399,-61.37477 75.34235,-76.15409 l 26.45155,-26.87148 94.61595,0.0473 c 52.03877,0.026 96.2984,0.36074 98.35472,0.74388 3.31382,0.61743 12.21549,9.32029 78.31619,76.56715 l 74.57741,75.87056 0.0298,100.05386 0.0298,100.05386 -31.28834,31.11957 c -17.20859,17.11577 -48.73128,48.47819 -70.05042,69.69428 -21.31914,21.21608 -39.34122,38.94348 -40.04908,39.39428 -0.70785,0.4508 -48.90948,0.8266 -107.11472,0.835 l -105.82772,0.015 z m 77.28395,-13.05631 c -3.56086,-8.31584 -5.33403,-16.88928 -5.45398,-26.37057 l -0.044,-3.47518 4.50552,4.43809 c 2.47804,2.44095 4.50516,4.00478 4.50471,3.47518 -4.6e-4,-0.5296 -0.70303,-4.35448 -1.56127,-8.49972 -1.93378,-9.33996 -5.09295,-14.9116 -10.48608,-18.49373 -2.28536,-1.51794 -4.00062,-2.91505 -3.81168,-3.10468 0.18894,-0.18963 2.82095,0.30811 5.84892,1.1061 3.02797,0.79798 6.63178,1.32617 8.00847,1.17374 l 2.50307,-0.27714 -3.00368,-2.49192 c -6.90165,-5.72577 -17.29519,-16.90828 -19.57681,-21.06288 l -2.45019,-4.46156 12.01473,-6.10641 c 17.70423,-8.99807 36.49189,-21.73601 52.0638,-35.29898 l 6.00736,-5.23235 5.50675,3.98746 c 3.02871,2.1931 11.13865,6.96194 18.02209,10.59741 6.88343,3.63548 17.02085,9.34525 22.5276,12.68839 14.10782,8.56483 30.73987,16.87448 39.54846,19.75905 4.13007,1.35248 7.65328,2.5373 7.82936,2.63292 1.23418,0.67024 -5.10688,9.63412 -11.94192,16.88142 -4.49704,4.76828 -7.92064,8.92633 -7.60801,9.24011 0.31263,0.31378 3.52821,-0.1071 7.14573,-0.93529 7.0702,-1.61865 8.25744,-1.16371 3.72108,1.42589 -4.82192,2.75262 -8.11674,8.22107 -10.62244,17.63019 -1.30122,4.88619 -2.18804,9.06431 -1.97072,9.28471 0.21733,0.2204 2.23,-1.58844 4.47262,-4.01963 l 4.07747,-4.42037 -0.41775,9.54663 c -0.39196,8.95719 -0.713,10.15329 -5.19977,19.37247 -2.63011,5.40421 -4.57517,10.03345 -4.32237,10.28718 0.25281,0.25374 3.80713,-2.71347 7.8985,-6.59379 7.4053,-7.02332 7.45112,-7.048 10.16213,-5.47489 3.01629,1.75026 11.98981,4.65595 12.57253,4.07108 0.59119,-0.59336 -2.67969,-6.50155 -7.93397,-14.33109 -5.8338,-8.69309 -6.06285,-11.25615 -2.37286,-26.55143 2.03055,-8.41674 3.09718,-10.95962 5.82274,-13.88151 1.83524,-1.96744 4.9872,-7.01227 7.00435,-11.21073 l 3.66756,-7.63356 14.78947,0.43932 c 8.1342,0.24163 17.49278,-0.01 20.79683,-0.559 5.05157,-0.8395 6.29325,-0.74285 7.80427,0.60751 2.56621,2.29336 9.23301,0.32666 18.48422,-5.45283 8.14439,-5.08802 11.51107,-8.93933 14.33492,-16.39842 2.24227,-5.92288 2.49776,-17.64931 0.50462,-23.16148 -1.0252,-2.83525 -1.02729,-4.58877 -0.0108,-9.04417 4.18243,-18.33215 1.42975,-33.5224 -7.9663,-43.96094 -3.63933,-4.04312 -4.90221,-6.59809 -2.11288,-4.27464 1.30524,1.08724 1.50184,0.49748 1.50184,-4.50521 0,-13.32302 -6.53607,-28.24246 -16.98372,-38.76758 -7.48857,-7.5441 -14.53544,-11.88046 -24.5672,-15.11766 -4.58473,-1.47947 -8.4339,-3.55426 -11.12986,-5.99924 -2.2667,-2.05568 -5.87112,-4.89563 -8.00982,-6.31101 -4.5149,-2.98792 -16.47803,-7.68212 -19.57783,-7.68212 -1.1888,0 -5.92633,-3.2395 -10.74034,-7.34418 -10.12657,-8.63446 -18.0963,-14.7638 -19.19677,-14.7638 -0.43111,0 -0.99187,0.79137 -1.24614,1.75859 -0.54713,2.08131 -0.56245,1.64501 -0.6077,-17.30676 -0.0372,-15.59974 1.37302,-20.32143 2.36592,-7.92131 0.34761,4.34138 0.9414,10.60666 1.31951,13.92286 l 0.68748,6.02945 0.67219,-9.04418 c 0.3697,-4.97429 0.71989,-21.27184 0.7782,-36.21678 0.0836,-21.42634 -0.21819,-28.42189 -1.42706,-33.08011 -4.30164,-16.57585 -16.96587,-29.99901 -33.8338,-35.86137 -6.40179,-2.22491 -6.8696,-2.2614 -7.79847,-0.6083 -1.40089,2.49315 -17.75905,2.55503 -21.92861,0.0829 -2.68,-1.58893 -3.17808,-1.55971 -9.62601,0.56478 -16.41594,5.40878 -29.68307,20.50359 -32.77277,37.28755 l -0.64746,3.51717 2.52184,-3.19203 c 6.5473,-8.28728 23.1961,-17.95388 36.21425,-21.02666 8.27031,-1.95211 22.51073,-1.41935 29.60416,1.10755 6.23485,2.22104 7.09316,3.72198 1.09177,1.90918 -2.56456,-0.77465 -7.1819,-1.40846 -10.26076,-1.40846 h -5.59793 l -0.0188,9.29539 c -0.0103,5.11247 -0.42651,12.46086 -0.92483,16.32976 l -0.90604,7.03435 -1.25271,-8.03926 c -0.689,-4.42159 -1.28657,-11.54388 -1.32793,-15.8273 l -0.0752,-7.78804 -2.75338,0.006 c -4.01498,0.008 -9.86516,1.75277 -17.38931,5.1857 l -6.62612,3.0232 1.78469,5.6906 c 0.98157,3.12983 2.10025,6.59502 2.48596,7.70041 0.3857,1.1054 -1.16897,-0.78727 -3.45482,-4.20594 -3.98018,-5.95265 -4.27614,-6.17375 -6.9919,-5.22355 -1.55969,0.54571 -5.82368,3.4658 -9.47553,6.48908 l -6.63972,5.49689 0.11198,33.89354 c 0.10732,32.48164 0.70278,36.59744 2.43203,16.81011 0.58421,-6.68485 0.86654,-7.61601 1.6758,-5.527 1.53501,3.96247 2.33315,32.15706 0.91031,32.15706 -0.64248,0 -1.68135,-1.13052 -2.30861,-2.51227 -0.62726,-1.38175 -1.55337,-2.51227 -2.05802,-2.51227 -0.50464,0 -5.85598,4.63514 -11.89186,10.3003 -10.62269,9.97028 -11.15758,10.32405 -16.69353,11.04116 -6.94945,0.90021 -15.95085,5.32777 -23.8556,11.73395 -4.1052,3.32695 -8.01933,5.42668 -12.90164,6.92105 -26.27952,8.04364 -46.3389,33.67675 -45.37428,57.98206 0.28542,7.19158 0.0409,8.51609 -2.31879,12.56135 -6.40524,10.98056 -8.36407,25.01478 -5.32986,38.18651 1.04348,4.52984 1.78677,12.14748 1.86303,19.09325 0.16184,14.7418 1.53171,19.09496 8.07321,25.65482 7.88687,7.90901 22.97126,14.62335 26.11589,11.62466 0.52314,-0.49886 8.61056,-1.1077 17.97203,-1.35298 9.36147,-0.24528 17.80932,-0.78991 18.773,-1.21031 1.2633,-0.55109 1.75215,-0.30764 1.75215,0.87259 0,3.10174 5.96259,14.82648 10.00341,19.67053 4.58982,5.5022 7.86814,16.0338 8.28165,26.6048 0.22942,5.86492 0.0396,6.37703 -5.48483,14.80114 -3.14736,4.79932 -6.0095,9.87386 -6.36031,11.27676 l -0.63785,2.55073 5.35909,-1.56945 c 2.9475,-0.8632 6.39878,-2.23671 7.66951,-3.05224 2.20694,-1.41638 2.61051,-1.20246 9.01104,4.77668 3.68534,3.44271 6.86019,6.66392 7.05523,7.15825 0.19503,0.49432 0.59291,0.65959 0.88417,0.36725 0.29127,-0.29234 -1.17125,-4.50353 -3.25003,-9.35821 z m -81.72474,-84.70553 c -4.91988,-2.6092 -11.65377,-10.4857 -12.88358,-15.06969 -1.2073,-4.50002 -0.37477,-9.57879 2.17036,-13.24011 1.31183,-1.88716 1.53301,-2.90321 0.73916,-3.39563 -2.18524,-1.35552 -4.87439,-9.24523 -5.51719,-16.18689 -1.76449,-19.05507 7.89779,-41.51034 23.26916,-54.0778 5.60983,-4.58654 5.14696,-6.01944 -0.93581,-2.89699 -3.11919,1.60117 -3.16073,1.5945 -1.56455,-0.25122 0.90185,-1.04284 3.09904,-4.83542 4.88264,-8.42797 1.78361,-3.59255 4.08697,-7.73223 5.11857,-9.1993 2.60466,-3.70416 2.3597,-4.16735 -1.22109,-2.30885 -1.7032,0.884 -3.30661,1.39661 -3.56314,1.13914 -0.25652,-0.25747 3.05185,-4.05545 7.35194,-8.43995 8.36523,-8.52942 13.87498,-11.77038 22.83692,-13.43317 4.74019,-0.8795 5.91852,-0.71165 11.07647,1.57783 8.58289,3.80972 15.26378,9.31702 18.11996,14.93692 1.36218,2.68028 2.73271,4.61628 3.04562,4.30222 0.3129,-0.31406 -0.10605,-1.60494 -0.93102,-2.86862 -1.92442,-2.94785 -0.94749,-5.63418 3.3868,-9.31291 11.58793,-9.83526 27.10339,-10.73449 44.4939,-2.57875 10.75547,5.04407 15.69567,9.69994 20.52823,19.34678 2.16108,4.31396 4.15516,7.84357 4.43129,7.84357 0.27614,0 1.57307,-2.43064 2.88208,-5.40142 6.25376,-14.19284 23.38881,-24.96269 43.33384,-27.23651 10.12072,-1.1538 16.37636,1.22465 23.97035,9.11373 3.40991,3.54242 6.60748,6.44076 7.10572,6.44076 0.49824,0 2.19319,-1.3486 3.76656,-2.99688 7.81756,-8.18977 32.98664,-10.10791 44.41643,-3.38498 8.02303,4.71909 16.01576,14.49662 21.00459,25.69495 0.17833,0.40029 -2.29971,-0.85846 -5.50675,-2.79724 -7.03142,-4.25075 -15.9442,-7.14152 -24.5164,-7.95166 l -6.34526,-0.59967 5.26043,2.29842 c 12.64913,5.52673 29.71192,21.07661 33.09986,30.16498 1.14766,3.07869 3.61988,8.01676 5.49382,10.9735 4.86866,7.68188 7.09072,15.12571 7.15429,23.96668 0.0659,9.16252 -1.66815,13.83625 -5.77675,15.57014 l -2.98521,1.2598 2.75373,2.38779 c 11.29298,9.79228 7.32692,27.50758 -7.93784,35.45615 -2.97318,1.54818 -2.9743,1.54765 -7.36321,-3.48797 -7.27735,-8.3497 -17.26043,-14.43005 -36.37571,-22.15519 -10.3391,-4.17838 -37.05242,-13.11087 -37.59138,-12.56994 -0.15695,0.15753 3.65669,1.99359 8.47474,4.08014 12.01244,5.2022 21.27544,9.8543 21.27544,10.68502 0,0.38066 -4.19922,1.00809 -9.3316,1.3943 -5.13239,0.3862 -9.92687,1.07143 -10.6544,1.52273 -0.85894,0.5328 1.79893,1.75014 7.57945,3.4715 21.82732,6.49985 26.23565,7.98944 31.42485,10.61857 3.03482,1.5376 6.63164,3.70085 7.99294,4.80722 l 2.47509,2.01157 -8.48549,0.6903 c -21.32315,1.73463 -42.35591,-3.97217 -69.9669,-18.98406 -8.58719,-4.66879 -21.92081,-11.87459 -29.63026,-16.01289 -16.1467,-8.66728 -22.21177,-13.17846 -20.50039,-15.24812 0.61335,-0.74175 5.4823,-4.2947 10.81989,-7.89542 11.08504,-7.47795 26.1933,-14.88497 34.09663,-16.71632 5.49421,-1.27311 17.35993,-0.81354 25.59155,0.99119 5.01562,1.09964 26.69301,3.27762 27.23253,2.73613 0.21649,-0.21729 -6.38222,-1.67378 -14.6638,-3.23665 -8.28158,-1.56287 -14.71066,-3.16056 -14.28685,-3.55042 0.42381,-0.38986 7.17686,-1.66492 15.00677,-2.83346 23.82572,-3.55578 40.30546,-2.50853 52.63281,3.34468 6.11601,2.90397 14.01065,9.45787 16.96874,14.08693 l 1.9517,3.05419 -0.61941,-4.36307 c -1.60851,-11.33024 -10.75118,-19.92774 -26.49871,-24.91858 -9.06437,-2.87276 -33.771,-2.75638 -41.43446,0.19518 -1.46436,0.56399 -1.62676,0.17416 -1.13034,-2.71335 1.67254,-9.72871 3.85539,-14.4544 9.1322,-19.77044 3.82809,-3.85655 4.67698,-5.15382 3.04911,-4.65958 -4.86318,1.47648 -12.12002,6.0885 -14.89729,9.46784 -3.00957,3.66198 -6.88258,12.71665 -6.88258,16.0907 0,3.27964 -2.00217,3.33707 -3.13003,0.0898 -2.27397,-6.5471 -22.00798,-14.26471 -41.08068,-16.0659 -15.75051,-1.48745 -29.85335,0.44845 -51.07685,7.01132 -11.40816,3.52771 -31.0341,7.99647 -32.13092,7.31611 -0.42195,-0.26174 -1.63579,-2.18476 -2.69743,-4.27339 -3.91082,-7.69403 -15.76104,-16.47093 -27.89366,-20.65951 -5.81351,-2.00702 -17.20515,-3.15927 -17.20515,-1.74028 0,1.65423 7.73211,7.49003 15.51902,11.71295 8.18582,4.43926 15.3023,9.83615 13.68409,10.37754 -0.62097,0.20775 -3.50337,-0.29522 -6.40534,-1.11773 -2.90196,-0.8225 -7.18135,-1.7997 -9.50976,-2.17155 -4.38315,-0.70001 -10.28433,0.10211 -10.28433,1.39789 0,1.23258 18.00155,6.88819 26.2865,8.25851 4.27008,0.70627 7.42395,1.62247 7.00859,2.036 -0.41537,0.41353 -7.28821,1.69595 -15.273,2.84983 -15.10382,2.18264 -24.51495,4.73077 -29.38993,7.95753 l -2.85741,1.89133 3.73422,1.23693 c 12.81645,4.24537 41.00339,-1.4393 79.36696,-16.0065 18.18831,-6.90636 27.72116,-9.12424 39.19691,-9.11939 17.78695,0.008 38.15879,4.76171 45.91149,10.71442 l 3.70892,2.8478 -8.53095,0.65323 c -21.4191,1.6401 -48.81904,16.4117 -79.34757,42.77712 -14.6886,12.68555 -24.86806,19.47324 -42.28098,28.19308 -18.74787,9.38834 -28.25934,12.39206 -41.30062,13.04272 -5.76862,0.28781 -10.26257,0.11725 -10.26257,-0.38949 0,-1.22827 8.90366,-6.98849 14.75138,-9.54341 2.6249,-1.14684 8.92301,-3.6068 13.9958,-5.46658 9.62359,-3.5282 20.68445,-8.87586 25.81969,-12.4832 l 3.00368,-2.10999 -3.5043,0.537 c -1.92736,0.29536 -6.91974,0.97961 -11.09417,1.52057 -4.17443,0.54096 -8.34204,1.27326 -9.26135,1.62733 -0.91931,0.35407 -1.67147,0.37578 -1.67147,0.0483 0,-0.32753 2.7489,-1.98825 6.10868,-3.69049 3.35977,-1.70224 5.93481,-3.26949 5.72231,-3.48277 -1.18454,-1.18889 -18.81256,4.40087 -27.79871,8.81484 -9.46744,4.65037 -11.48678,6.17069 -21.26154,16.00736 -5.94032,5.97792 -11.14502,10.84897 -11.56602,10.82454 -0.421,-0.0244 -2.40248,-0.91259 -4.40329,-1.9737 z m 193.37034,-33.64348 c 0,-0.65554 -12.6621,-7.02484 -18.70419,-9.4086 -2.65355,-1.0469 -5.68702,-2.26423 -6.74104,-2.70519 -1.37181,-0.57391 -1.70629,-0.46054 -1.17703,0.39896 1.76926,2.87325 26.62226,13.80953 26.62226,11.71483 z m -44.05398,-38.49906 c 11.00608,-5.70678 9.83605,-6.11663 -3.13215,-1.09718 -8.27256,3.20197 -18.17528,9.2088 -21.39791,12.97963 -1.58892,1.85922 -0.34832,1.43707 6.00736,-2.04416 4.4054,-2.41298 12.74062,-6.84022 18.5227,-9.83829 z m -14.58782,-45.59337 c -4.12328,-5.85074 -7.45898,-8.02363 -13.08185,-8.52159 l -4.8702,-0.43129 5.50674,2.94424 c 3.02872,1.61934 7.53424,4.75742 10.01227,6.97351 2.47804,2.2161 4.69929,3.8422 4.9361,3.61356 0.23682,-0.22865 -0.88956,-2.28894 -2.50306,-4.57843 z m -141.48845,16.23464 c 1.38092,-2.13367 7.89468,-6.93435 7.89468,-5.81843 0,0.21018 -2.14013,2.16745 -4.75583,4.34949 -3.6588,3.05219 -4.38284,3.39103 -3.13885,1.46894 z M 484.5271,450.98579 c -0.66827,-0.80818 -3.76467,-2.42195 -6.88088,-3.58616 -3.11621,-1.16422 -10.34398,-4.62976 -16.06171,-7.70122 -8.54689,-4.59122 -11.51262,-5.67443 -16.67479,-6.09033 -9.84746,-0.79336 -12.45526,0.15048 -24.55429,8.88695 -10.51731,7.59433 -11.27626,7.96809 -13.37599,6.58724 -1.22432,-0.80516 -4.08423,-2.0227 -6.35535,-2.70564 -3.74903,-1.12737 -4.07962,-1.49104 -3.58984,-3.94898 0.72512,-3.63894 -1.81805,-6.05097 -6.37995,-6.05097 -3.53906,0 -3.56296,-0.0277 -1.75347,-2.03453 1.80417,-2.00093 11.83351,-7.25597 16.24765,-8.51324 2.03773,-0.58041 2.25276,-0.29597 2.25276,2.97996 v 3.62161 l 14.7681,-13.26484 c 8.12245,-7.29566 14.91828,-13.6431 15.10184,-14.10543 0.18356,-0.46232 1.17071,-0.84059 2.19367,-0.84059 1.02296,0 2.16259,-0.4915 2.5325,-1.09224 0.90475,-1.46929 5.23055,2.78783 18.97945,18.67813 14.47116,16.72505 18.51279,20.67443 18.51279,18.09023 0,-2.15889 -7.21337,-43.8726 -9.80466,-56.69875 l -1.70945,-8.46129 -10.51289,-5.85075 c -5.78208,-3.21792 -10.89664,-5.9827 -11.36567,-6.14396 -1.23531,-0.42473 -3.03619,-18.8317 -1.94918,-19.92271 0.52792,-0.52987 8.40403,2.0951 19.15551,6.38418 15.97848,6.37428 18.20847,7.53506 17.85471,9.29385 -0.22234,1.1054 -1.23008,5.91461 -2.23941,10.68713 l -1.83515,8.67731 5.33423,8.1549 c 2.93383,4.48519 5.45761,8.15489 5.60841,8.15489 0.1508,0 2.6337,-3.73013 5.51756,-8.28917 l 5.24337,-8.28918 -2.1556,-9.04548 c -2.47105,-10.36915 -2.62182,-12.54794 -0.87184,-12.59964 0.68834,-0.0203 8.46035,-3.12373 17.27115,-6.89643 8.8108,-3.7727 16.35811,-6.66838 16.7718,-6.43485 1.02643,0.57943 -0.28837,17.58956 -1.47665,19.10399 -0.52376,0.66751 -5.82932,3.96495 -11.79013,7.32766 l -10.83785,6.11401 -0.69198,5.23369 c -0.38059,2.87853 -2.67303,16.4095 -5.09432,30.06884 -4.7363,26.71917 -5.12024,30.33671 -3.1508,29.68683 0.68834,-0.22714 7.24344,-7.56844 14.56689,-16.314 8.99868,-10.74609 13.11918,-16.41416 12.7102,-17.48386 -0.83707,-2.18938 0.5371,-14.19222 1.62482,-14.19222 0.48652,0 0.88459,2.71325 0.88459,6.02945 0,6.37291 0.11561,6.57587 2.89525,5.08278 2.62929,-1.41233 7.40798,1.90242 20.43666,14.1759 10.57881,9.96561 11.75995,10.78315 17.779,12.3059 6.70675,1.69672 16.73947,6.25778 20.83426,9.47162 l 2.37217,1.86183 -6.44316,0.60388 c -7.04159,0.65997 -16.93546,3.95429 -18.85771,6.27898 -1.97491,2.38837 -4.28747,1.70417 -7.37746,-2.18272 -1.86326,-2.34378 -5.44997,-4.83166 -10.01227,-6.94489 -9.67419,-4.48102 -13.25554,-5.01679 -20.12902,-3.01127 -8.61915,2.51487 -34.60139,12.45143 -38.35004,14.66646 -3.95864,2.33911 -3.65976,2.31094 -5.16783,0.48714 z m 4.08943,207.19427 c 0.90227,-3.50205 1.61957,-4.10041 9.19209,-7.66786 4.51741,-2.12817 9.05396,-4.52086 10.08123,-5.31708 1.65131,-1.27991 1.18103,-1.33368 -4.0581,-0.46403 -8.6125,1.4296 -11.06282,0.51464 -13.51355,-5.04599 -3.48935,-7.91727 -0.73384,-16.39554 5.3287,-16.39554 2.34498,0 17.8844,-5.18772 17.8844,-5.97057 0,-0.30873 -4.24395,-0.56133 -9.431,-0.56133 -8.60321,0 -9.65776,-0.21383 -12.01471,-2.43621 -3.0046,-2.83306 -3.51122,-8.96666 -1.19931,-14.52016 l 1.38441,-3.32556 11.88183,-0.6286 c 15.23726,-0.80612 20.30299,-2.29318 20.37694,-5.98175 0.008,-0.42058 -5.95448,-0.68605 -13.25093,-0.58995 -15.11701,0.1991 -17.44807,-0.52174 -22.94733,-7.09607 l -3.29664,-3.94111 -3.32946,3.44084 c -6.56382,6.7834 -10.13473,7.89463 -24.49281,7.62192 -7.02111,-0.13335 -12.76565,0.13775 -12.76565,0.60245 0,4.03935 8.56423,6.25359 24.18762,6.25359 h 9.80268 l 1.5168,2.94394 c 1.98111,3.84514 2.21403,11.07095 0.44833,13.90868 -1.99495,3.20616 -7.14571,4.58807 -14.80194,3.97125 -5.92727,-0.47754 -6.39172,-0.38449 -4.61098,0.92377 1.0891,0.80014 5.80988,2.63569 10.49062,4.07901 4.68074,1.44332 8.65155,2.73302 8.82404,2.866 0.17249,0.13298 0.90852,2.50527 1.63563,5.27177 1.17743,4.47983 1.12507,5.47154 -0.47879,9.06704 -2.37955,5.33443 -4.76782,6.50515 -11.53849,5.6561 -2.99804,-0.37596 -5.45098,-0.46294 -5.45098,-0.19328 0,0.26965 3.94233,2.46974 8.76074,4.8891 4.8184,2.41935 9.04345,4.78808 9.389,5.26385 0.34554,0.47576 1.22467,4.31953 1.95361,8.54171 l 1.32534,7.6767 0.86901,-4.52209 c 0.47796,-2.48714 1.3094,-6.23139 1.84765,-8.32054 z m -4.09036,-53.53154 c 0.0267,-2.59881 0.16299,-2.73561 1.10498,-1.10904 0.77009,1.32975 0.76147,2.16965 -0.0304,2.96447 -0.80582,0.80879 -1.09674,0.30645 -1.07453,-1.85543 z m -40.23933,52.05423 c -3.69435,-8.43307 -7.85001,-20.76229 -7.85001,-23.2898 0,-1.34997 0.93756,-4.39836 2.08348,-6.77421 l 2.08348,-4.31972 -5.43579,-7.80522 c -2.98969,-4.29287 -6.60564,-10.40542 -8.03545,-13.58344 -2.92721,-6.50625 -4.7129,-7.4166 -4.7129,-2.40266 0,3.43391 3.07492,10.18538 8.76043,19.23487 3.15166,5.01642 3.15445,5.03326 1.72764,10.4266 -1.73659,6.56432 -0.79722,11.83512 3.68817,20.69422 3.00367,5.93258 7.67172,12.37864 9.0667,12.52012 0.39344,0.0399 -0.22565,-2.07544 -1.37575,-4.70076 z m 90.7243,-10.88833 c 3.55867,-7.15294 4.52941,-15.74827 2.26786,-20.08047 -1.44693,-2.77172 -1.35618,-3.09344 2.46658,-8.74339 2.18283,-3.22619 4.61171,-7.41017 5.3975,-9.29774 1.59086,-3.82148 1.8984,-8.52105 0.5576,-8.52105 -0.47911,0 -3.39028,3.95682 -6.46928,8.79294 -3.079,4.83612 -6.6737,10.1174 -7.98824,11.73618 l -2.39006,2.94324 2.35137,3.47767 c 1.29325,1.91272 2.35137,4.7004 2.35137,6.19484 0,3.67996 -2.96607,12.06881 -7.36982,20.84385 -2.00403,3.99327 -3.62651,7.61094 -3.60551,8.03926 0.0947,1.93295 9.77599,-10.04948 12.43063,-15.38533 z M 298.25666,570.10283 c 4.41136,-3.55218 8.02065,-6.99954 8.02065,-7.66079 0,-0.66125 -0.9008,-4.76415 -2.00178,-9.11756 -4.19729,-16.59657 -3.64557,-32.50789 1.53487,-44.26485 2.10194,-4.77033 2.44731,-7.04568 2.39289,-15.76485 -0.0937,-15.01069 4.18519,-29.45923 11.70258,-39.51639 2.38258,-3.18754 2.3909,-3.29281 2.34142,-29.64478 l -0.0497,-26.44589 -12.99888,-13.51966 -12.99889,-13.51966 -13.48399,13.5057 -13.48398,13.5057 v 79.88616 79.88617 l 9.74786,9.82055 c 5.36133,5.4013 10.08725,9.70537 10.50206,9.5646 0.4148,-0.14077 4.36348,-3.16227 8.77484,-6.71445 z m 396.22761,-2.31459 9.28016,-9.27555 v -80.90096 -80.90097 l -12.75171,-12.82706 -12.75171,-12.82707 -13.28019,13.30159 -13.2802,13.30158 v 25.92686 25.92686 l 4.90303,10.26379 c 6.47538,13.55526 7.45405,17.86344 7.58205,33.37667 0.0942,11.4147 0.38781,13.59894 2.32605,17.30303 5.17518,9.89003 6.60032,26.11999 3.53611,40.27031 -2.72285,12.57393 -2.8603,12.13809 6.18283,19.6046 4.4054,3.63734 8.22662,6.64002 8.49161,6.67261 0.26499,0.0326 4.65788,-4.11473 9.76197,-9.21629 z m -196.557,-292.44806 c 0.24957,-1.24358 0.95043,-7.68755 1.55748,-14.31994 0.60704,-6.63239 1.37013,-13.75468 1.69573,-15.8273 l 0.59202,-3.76841 h -14.14513 c -7.77983,0 -14.13623,0.33916 -14.12533,0.75368 0.0109,0.41453 0.90985,8.21513 1.99766,17.33467 1.08782,9.11954 1.98001,16.92013 1.98264,17.33466 0.003,0.41452 4.50173,0.75368 9.99799,0.75368 9.56137,0 10.01279,-0.0977 10.44694,-2.26104 z"
       id="path1" />
  </g>
</svg>
